<svg xmlns="http://www.w3.org/2000/svg" width="1920" height="1920" viewBox="0 0 1920 1920" version="1.1"><path d="M 915.500 402.078 C 771.259 407.340, 634.585 467.606, 531.500 571.401 C 442.372 661.143, 384.622 778.718, 369.609 901 C 365.816 931.896, 365.531 937.117, 365.543 975.500 C 365.556 1014.873, 365.940 1021.396, 370.073 1052.500 C 381.728 1140.205, 414.041 1224.069, 464.855 1298.500 C 475.754 1314.465, 493.086 1337.100, 503.479 1348.943 C 551.420 1403.572, 602.658 1445.032, 663.500 1478.428 C 721.559 1510.296, 785.761 1532.134, 850 1541.865 C 883.587 1546.953, 901.858 1548.304, 937.500 1548.332 C 989.376 1548.373, 1030.240 1543.463, 1078.500 1531.391 C 1117.977 1521.517, 1152.684 1508.711, 1191.189 1489.812 C 1283.733 1444.391, 1362.165 1374.807, 1419.228 1287.500 C 1479.831 1194.775, 1511.992 1086.607, 1511.992 975.500 C 1511.992 946.947, 1508.529 900.166, 1505.904 893.250 C 1504.339 889.127, 1507.384 887.069, 1468.500 918.520 C 1454.200 930.086, 1435.525 945.189, 1427 952.082 C 1418.475 958.975, 1406.325 968.804, 1400 973.925 C 1393.675 979.046, 1387.995 984.195, 1387.379 985.368 C 1386.762 986.540, 1385.729 996.050, 1385.083 1006.500 C 1381.819 1059.335, 1373.199 1099.166, 1354.861 1146.144 C 1350.542 1157.210, 1334.303 1191.031, 1329.242 1199.500 C 1328.257 1201.150, 1326.135 1204.750, 1324.528 1207.500 C 1319.964 1215.309, 1304.174 1238.807, 1298.657 1246 C 1268.425 1285.419, 1231.780 1319.854, 1191.500 1346.696 C 1137.788 1382.490, 1079.728 1405.244, 1013.500 1416.456 C 990.051 1420.425, 969.072 1421.996, 939.500 1421.994 C 885.378 1421.992, 845.596 1415.619, 796 1399.006 C 729.956 1376.884, 671.571 1340.561, 621.534 1290.467 C 553.573 1222.428, 509.164 1133.731, 495.598 1038.936 C 492.270 1015.686, 491.576 1004.643, 491.576 975 C 491.576 945.494, 492.277 934.249, 495.537 911.500 C 507.769 826.146, 543.820 747.027, 600.339 681.500 C 608.813 671.676, 634.707 645.890, 645.843 636.186 C 708.555 581.541, 788.888 544.790, 872.500 532.493 C 909.895 526.993, 957.679 526.439, 994 531.083 C 1080.231 542.109, 1158.729 576.490, 1226.348 632.850 C 1239.535 643.840, 1264.379 668.431, 1277.186 683.171 C 1288.261 695.915, 1290.191 697.590, 1292.340 696.322 C 1292.978 695.945, 1307 685.453, 1323.500 673.006 C 1340 660.559, 1360.250 645.295, 1368.500 639.086 C 1385.798 626.068, 1389.236 622.798, 1388.289 620.264 C 1387.926 619.294, 1383.202 613.227, 1377.790 606.782 C 1305.909 521.179, 1210.619 458.150, 1104.500 426.015 C 1043.402 407.513, 981.485 399.672, 915.500 402.078 M 1693.757 517.503 C 1686.639 519.297, 1675.389 524.065, 1649.009 536.469 C 1588.944 564.712, 1524.398 601.735, 1457.500 646.318 C 1394.731 688.149, 1325.269 740.327, 1257 796.928 C 1237.067 813.454, 1213.769 833.176, 1212 835.021 C 1211.725 835.308, 1204.908 841.257, 1196.851 848.242 C 1188.794 855.226, 1181.590 861.517, 1180.843 862.221 C 1180.096 862.924, 1175.218 867.325, 1170.002 872 C 1149.490 890.387, 1126.466 911.522, 1103.029 933.478 C 1076.032 958.769, 989.059 1045.231, 962.350 1073.330 L 945.402 1091.161 940.998 1084.830 C 905.697 1034.094, 867.073 984.047, 828.068 938.500 C 823.358 933, 819.278 928.275, 819.002 928 C 818.726 927.725, 815.144 923.675, 811.042 919 C 787.559 892.237, 779.746 886.028, 761.967 879.996 C 752.728 876.862, 733.709 876.089, 723.749 878.444 C 714.424 880.648, 699.958 887.670, 693.229 893.258 C 669.196 913.218, 660.123 945.208, 670.188 974.500 C 673.925 985.376, 678.943 992.715, 695.317 1011.258 C 723.366 1043.020, 734.865 1056.892, 770.539 1102 C 799.485 1138.602, 841.549 1199.981, 863.400 1237.500 C 880.002 1266.007, 890.599 1275.882, 912.485 1283.245 C 920.567 1285.964, 922.794 1286.283, 934 1286.321 C 948.185 1286.369, 955.244 1284.889, 966.500 1279.508 C 977.256 1274.366, 984.784 1267.949, 999.235 1251.602 C 1052.042 1191.869, 1139.853 1101.976, 1205.505 1040.439 C 1229.684 1017.776, 1268.244 982.522, 1281 971.418 C 1283.475 969.263, 1285.725 967.267, 1286 966.983 C 1286.275 966.698, 1294.825 959.252, 1305 950.434 C 1396.418 871.216, 1478.777 808.422, 1561.572 754.814 C 1619.368 717.393, 1671.473 688.600, 1728.683 662.471 C 1749.922 652.770, 1756.355 648.659, 1765.091 639.206 C 1777.788 625.466, 1784.116 608.986, 1784.175 589.500 C 1784.213 576.928, 1782.582 569.313, 1777.486 558.272 C 1769.138 540.184, 1753.889 526.576, 1734.261 519.700 C 1726.505 516.983, 1724.009 516.598, 1712.500 516.343 C 1703.594 516.146, 1697.692 516.511, 1693.757 517.503" stroke="none" fill="#6cbb3d" fill-rule="evenodd"/><path d="M 0 960.001 L 0 1920.001 960.250 1919.751 L 1920.500 1919.500 1920.751 959.750 L 1921.001 -0 960.501 -0 L 0 0 0 960.001 M 0.498 960.500 C 0.498 1488.500, 0.611 1704.350, 0.750 1440.167 C 0.889 1175.985, 0.889 743.985, 0.750 480.167 C 0.611 216.350, 0.498 432.500, 0.498 960.500 M 915.500 402.078 C 771.259 407.340, 634.585 467.606, 531.500 571.401 C 442.372 661.143, 384.622 778.718, 369.609 901 C 365.816 931.896, 365.531 937.117, 365.543 975.500 C 365.556 1014.873, 365.940 1021.396, 370.073 1052.500 C 381.728 1140.205, 414.041 1224.069, 464.855 1298.500 C 475.754 1314.465, 493.086 1337.100, 503.479 1348.943 C 551.420 1403.572, 602.658 1445.032, 663.500 1478.428 C 721.559 1510.296, 785.761 1532.134, 850 1541.865 C 883.587 1546.953, 901.858 1548.304, 937.500 1548.332 C 989.376 1548.373, 1030.240 1543.463, 1078.500 1531.391 C 1117.977 1521.517, 1152.684 1508.711, 1191.189 1489.812 C 1283.733 1444.391, 1362.165 1374.807, 1419.228 1287.500 C 1479.831 1194.775, 1511.992 1086.607, 1511.992 975.500 C 1511.992 946.947, 1508.529 900.166, 1505.904 893.250 C 1504.339 889.127, 1507.384 887.069, 1468.500 918.520 C 1454.200 930.086, 1435.525 945.189, 1427 952.082 C 1418.475 958.975, 1406.325 968.804, 1400 973.925 C 1393.675 979.046, 1387.995 984.195, 1387.379 985.368 C 1386.762 986.540, 1385.729 996.050, 1385.083 1006.500 C 1381.819 1059.335, 1373.199 1099.166, 1354.861 1146.144 C 1350.542 1157.210, 1334.303 1191.031, 1329.242 1199.500 C 1328.257 1201.150, 1326.135 1204.750, 1324.528 1207.500 C 1319.964 1215.309, 1304.174 1238.807, 1298.657 1246 C 1268.425 1285.419, 1231.780 1319.854, 1191.500 1346.696 C 1137.788 1382.490, 1079.728 1405.244, 1013.500 1416.456 C 990.051 1420.425, 969.072 1421.996, 939.500 1421.994 C 885.378 1421.992, 845.596 1415.619, 796 1399.006 C 729.956 1376.884, 671.571 1340.561, 621.534 1290.467 C 553.573 1222.428, 509.164 1133.731, 495.598 1038.936 C 492.270 1015.686, 491.576 1004.643, 491.576 975 C 491.576 945.494, 492.277 934.249, 495.537 911.500 C 507.769 826.146, 543.820 747.027, 600.339 681.500 C 608.813 671.676, 634.707 645.890, 645.843 636.186 C 708.555 581.541, 788.888 544.790, 872.500 532.493 C 909.895 526.993, 957.679 526.439, 994 531.083 C 1080.231 542.109, 1158.729 576.490, 1226.348 632.850 C 1239.535 643.840, 1264.379 668.431, 1277.186 683.171 C 1288.261 695.915, 1290.191 697.590, 1292.340 696.322 C 1292.978 695.945, 1307 685.453, 1323.500 673.006 C 1340 660.559, 1360.250 645.295, 1368.500 639.086 C 1385.798 626.068, 1389.236 622.798, 1388.289 620.264 C 1387.926 619.294, 1383.202 613.227, 1377.790 606.782 C 1305.909 521.179, 1210.619 458.150, 1104.500 426.015 C 1043.402 407.513, 981.485 399.672, 915.500 402.078 M 1693.757 517.503 C 1686.639 519.297, 1675.389 524.065, 1649.009 536.469 C 1588.944 564.712, 1524.398 601.735, 1457.500 646.318 C 1394.731 688.149, 1325.269 740.327, 1257 796.928 C 1237.067 813.454, 1213.769 833.176, 1212 835.021 C 1211.725 835.308, 1204.908 841.257, 1196.851 848.242 C 1188.794 855.226, 1181.590 861.517, 1180.843 862.221 C 1180.096 862.924, 1175.218 867.325, 1170.002 872 C 1149.490 890.387, 1126.466 911.522, 1103.029 933.478 C 1076.032 958.769, 989.059 1045.231, 962.350 1073.330 L 945.402 1091.161 940.998 1084.830 C 905.697 1034.094, 867.073 984.047, 828.068 938.500 C 823.358 933, 819.278 928.275, 819.002 928 C 818.726 927.725, 815.144 923.675, 811.042 919 C 787.559 892.237, 779.746 886.028, 761.967 879.996 C 752.728 876.862, 733.709 876.089, 723.749 878.444 C 714.424 880.648, 699.958 887.670, 693.229 893.258 C 669.196 913.218, 660.123 945.208, 670.188 974.500 C 673.925 985.376, 678.943 992.715, 695.317 1011.258 C 723.366 1043.020, 734.865 1056.892, 770.539 1102 C 799.485 1138.602, 841.549 1199.981, 863.400 1237.500 C 880.002 1266.007, 890.599 1275.882, 912.485 1283.245 C 920.567 1285.964, 922.794 1286.283, 934 1286.321 C 948.185 1286.369, 955.244 1284.889, 966.500 1279.508 C 977.256 1274.366, 984.784 1267.949, 999.235 1251.602 C 1052.042 1191.869, 1139.853 1101.976, 1205.505 1040.439 C 1229.684 1017.776, 1268.244 982.522, 1281 971.418 C 1283.475 969.263, 1285.725 967.267, 1286 966.983 C 1286.275 966.698, 1294.825 959.252, 1305 950.434 C 1396.418 871.216, 1478.777 808.422, 1561.572 754.814 C 1619.368 717.393, 1671.473 688.600, 1728.683 662.471 C 1749.922 652.770, 1756.355 648.659, 1765.091 639.206 C 1777.788 625.466, 1784.116 608.986, 1784.175 589.500 C 1784.213 576.928, 1782.582 569.313, 1777.486 558.272 C 1769.138 540.184, 1753.889 526.576, 1734.261 519.700 C 1726.505 516.983, 1724.009 516.598, 1712.500 516.343 C 1703.594 516.146, 1697.692 516.511, 1693.757 517.503" stroke="none" fill="#fbfbfb" fill-rule="evenodd"/></svg>